# xmcd
#
# Track frame offsets: 
#        150
#        15123
#        26446
#        40353
#        53345
#        67224
#        81805
#        101137
#        115171
#        132311
#        149176
#        171829
#        200587
#        216057
#        232579
#        245036
#        259858
#        279047
#        304270
#
# Disc length: 4369 seconds
#
# Revision: 0
# Processed by: cddbd v1.4PL0 Copyright (c) Steve Scherf et al.
# Submitted via: ExactAudioCopy v0.90b4
#
DISCID=0b110f13
DTITLE=Al Green  - The Very Best Of
DYEAR=1900
DGENRE=
TTITLE0=Let's Stay Together
TTITLE1=Sha La La (Make Me Happy)
TTITLE2=L-O-V-E (Love)
TTITLE3=Tired Of Being Alone
TTITLE4=Call Me (Come Back Home)
TTITLE5=I'm Still In Love With You
TTITLE6=Her I Am (Come And Take Me)
TTITLE7=Look What You Done For Me
TTITLE8=I Can't Get Next To You
TTITLE9=Take Me To The River
TTITLE10=Love And Happiness
TTITLE11=How Can You Mend A Broken Hear
TTITLE12=I Tried To Tell Myself
TTITLE13=I've Never Found A Girl
TTITLE14=Oh Me Oh My (Dreams In My Arms
TTITLE15=You Ought To Be With Me
TTITLE16=Simply Beautiful
TTITLE17=Let's Get Married
TTITLE18=Full Of Fire
EXTD=
EXTT0=
EXTT1=
EXTT2=
EXTT3=
EXTT4=
EXTT5=
EXTT6=
EXTT7=
EXTT8=
EXTT9=
EXTT10=
EXTT11=
EXTT12=
EXTT13=
EXTT14=
EXTT15=
EXTT16=
EXTT17=
EXTT18=
PLAYORDER=
